<svg width="212" height="219" viewBox="0 0 212 219" fill="none" xmlns="http://www.w3.org/2000/svg">
<circle cx="102.119" cy="102.119" r="82.119" stroke="white" stroke-width="40"/>
<g clip-path="url(#clip0_10_48)">
<path d="M341.021 171.993H340.973C322.766 172.007 306.911 182.082 295.233 195.812C277.047 194.176 258.53 198.523 245.506 211.565C232.461 224.588 228.115 243.105 229.753 261.292C216.352 272.653 205.935 288.242 205.935 307.128C205.92 325.429 215.916 341.453 229.753 353.151C228.207 371.214 232.572 389.641 245.506 402.593C258.53 415.635 277.047 419.982 295.233 418.346C306.594 431.743 322.09 442.166 340.973 442.166C340.988 442.166 341.004 442.162 341.021 442.162V403.57C328.349 403.57 315.802 401.075 304.095 396.225C292.389 391.376 281.752 384.269 272.792 375.309C263.832 366.349 256.724 355.712 251.875 344.005C247.026 332.298 244.53 319.751 244.53 307.08C244.53 294.408 247.026 281.861 251.875 270.154C256.724 258.448 263.832 247.811 272.792 238.851C281.752 229.891 292.389 222.783 304.095 217.934C315.802 213.085 328.349 210.589 341.021 210.589V171.993Z" fill="#FACC15"/>
<path d="M166.482 80.0001C165.129 79.9897 163.791 80.5333 162.818 81.5738L151.557 93.6386L93.3453 156.009C90.3838 159.18 92.6322 164.357 96.9713 164.358H145.059L131.879 212.669C130.499 217.674 136.76 221.169 140.296 217.368L151.557 205.303L209.767 142.935C212.732 139.764 210.482 134.583 206.141 134.584H158.053L171.233 86.2649C171.831 84.0634 170.851 81.7379 168.857 80.6284C168.111 80.2124 167.294 80.0063 166.482 80.0001Z" fill="#39ACE7"/>
</g>
<defs>
<clipPath id="clip0_10_48">
<rect width="119.114" height="138.976" fill="white" transform="translate(92 80)"/>
</clipPath>
</defs>
</svg>

